<svg xmlns="http://www.w3.org/2000/svg" viewBox="0 0 100 100" fill="currentColor"><path d="M49.78 13.28 L52.68 13.78 L55.45 14.49 L58.13 15.40 L60.70 16.51 L63.15 17.80 L65.46 19.27 L67.63 20.89 L69.65 22.66 L71.49 24.56 L73.17 26.58 L74.66 28.70 L75.97 30.91 L77.09 33.19 L78.01 35.52 L78.75 37.89 L79.28 40.29 L79.63 42.69 L79.78 45.09 L79.75 47.47 L79.53 49.81 L79.13 52.10 L78.56 54.33 L77.82 56.48 L76.93 58.54 L75.89 60.51 L74.71 62.37 L73.41 64.11 L71.98 65.72 L70.46 67.20 L68.84 68.54 L67.13 69.74 L65.36 70.79 L63.53 71.68 L61.66 72.42 L59.76 73.01 L57.84 73.44 L55.91 73.71 L53.99 73.83 L52.09 73.80 L50.22 73.62 L48.39 73.30 L46.61 72.84 L44.89 72.25 L43.24 71.54 L41.67 70.71 L40.19 69.76 L38.80 68.72 L37.51 67.58 L36.33 66.36 L35.26 65.07 L34.31 63.71 L33.48 62.30 L32.76 60.84 L32.18 59.35 L31.71 57.83 L31.37 56.31 L31.16 54.77 L31.06 53.25 L31.09 51.73 L31.23 50.25 L31.49 48.79 L31.86 47.38 L32.33 46.02 L32.90 44.71 L33.56 43.46 L34.31 42.29 L35.14 41.19 L36.04 40.17 L37.01 39.24 L38.03 38.40 L39.11 37.65 L40.22 36.99 L41.38 36.43 L42.55 35.97 L43.75 35.61 L44.95 35.34 L46.16 35.17 L47.37 35.10 L48.56 35.12 L49.73 35.24 L50.87 35.44 L51.98 35.73 L53.05 36.10 L54.08 36.55 L55.05 37.07 L55.97 37.66 L56.83 38.32 L57.62 39.02 L58.35 39.78 L59.01 40.58 L59.59 41.43 L60.11 42.30 L60.54 43.20 L60.90 44.12 L61.18 45.05 L61.38 45.99 L61.51 46.93 L61.57 47.87 L61.54 48.79 L61.45 49.70 L61.29 50.59 L61.07 51.45 L60.78 52.27 L60.43 53.07 L60.02 53.82 L59.56 54.53 L59.06 55.19 L58.51 55.80 L57.93 56.36 L57.31 56.86 L56.66 57.31 L55.99 57.70 L55.29 58.03 L54.59 58.30 L53.87 58.52 L53.16 58.67 L52.44 58.77 L51.72 58.80 L51.02 58.79 L50.33 58.71 L49.65 58.59 L49.00 58.42 L48.37 58.19 L47.77 57.93 L47.21 57.62 L46.67 57.27 L46.17 56.89 L45.72 56.47 L45.30 56.03 L44.92 55.56 L44.59 55.07 L44.30 54.57 L44.05 54.05 L43.85 53.52 L43.69 52.99 L43.58 52.45 L43.51 51.92 L43.49 51.39 L43.50 50.87 L43.56 50.35 L43.65 49.86 L43.79 49.38 L43.95 48.92 L44.15 48.48 L44.38 48.06 L44.64 47.67 L44.92 47.31 L45.22 46.98 L45.55 46.68 L45.89 46.41 L46.24 46.17 L46.61 45.96 L46.98 45.79 L47.36 45.64 L47.75 45.53 L48.13 45.46 L48.51 45.41 L48.89 45.40 L49.26 45.41 L49.62 45.45 L49.97 45.52 L50.31 45.62 L50.63 45.74 L50.93 45.88 L51.22 46.04 L51.49 46.22 L51.74 46.42 L51.96 46.63 L52.17 46.86 L52.35 47.09 L52.51 47.34 L52.65 47.59 L52.76 47.84 L52.85 48.10 L52.92 48.35 L52.97 48.61 L53.00 48.86 L53.01 49.11 L52.99 49.36 L52.96 49.59 L52.91 49.82 L52.85 50.04 L52.77 50.24 L52.67 50.43 L52.57 50.61 L52.45 50.78 L52.32 50.93 L52.19 51.07 L52.05 51.20 L51.90 51.30 L51.75 51.40 L51.60 51.48 L51.44 51.54 L51.29 51.59 L51.14 51.63 L50.99 51.65 L50.84 51.66 L50.70 51.66 L50.56 51.65 L50.30 51.61 L49.70 58.39 L50.23 58.42 L50.90 58.42 L51.56 58.36 L52.23 58.25 L52.89 58.09 L53.53 57.88 L54.17 57.61 L54.78 57.30 L55.37 56.93 L55.93 56.52 L56.46 56.07 L56.95 55.57 L57.41 55.03 L57.82 54.45 L58.19 53.84 L58.51 53.20 L58.79 52.53 L59.01 51.84 L59.18 51.13 L59.29 50.41 L59.34 49.67 L59.34 48.93 L59.28 48.19 L59.16 47.45 L58.98 46.71 L58.74 45.99 L58.45 45.29 L58.10 44.61 L57.69 43.95 L57.23 43.32 L56.73 42.73 L56.17 42.18 L55.57 41.66 L54.92 41.20 L54.24 40.78 L53.52 40.42 L52.77 40.11 L51.99 39.86 L51.20 39.67 L50.38 39.54 L49.55 39.48 L48.72 39.48 L47.88 39.55 L47.04 39.68 L46.21 39.88 L45.40 40.15 L44.60 40.48 L43.83 40.88 L43.08 41.34 L42.37 41.85 L41.70 42.43 L41.07 43.06 L40.49 43.74 L39.96 44.48 L39.48 45.25 L39.07 46.07 L38.72 46.92 L38.43 47.81 L38.21 48.72 L38.06 49.65 L37.99 50.59 L37.99 51.55 L38.07 52.50 L38.22 53.46 L38.45 54.41 L38.75 55.34 L39.13 56.26 L39.58 57.15 L40.11 58.00 L40.70 58.82 L41.36 59.59 L42.09 60.32 L42.87 60.99 L43.71 61.60 L44.61 62.15 L45.55 62.63 L46.53 63.04 L47.55 63.37 L48.60 63.62 L49.67 63.79 L50.77 63.88 L51.87 63.88 L52.98 63.79 L54.09 63.62 L55.19 63.36 L56.27 63.01 L57.33 62.57 L58.36 62.05 L59.36 61.44 L60.31 60.75 L61.21 59.98 L62.05 59.14 L62.84 58.23 L63.55 57.25 L64.19 56.21 L64.75 55.11 L65.23 53.97 L65.62 52.78 L65.91 51.55 L66.11 50.30 L66.22 49.02 L66.22 47.73 L66.12 46.43 L65.92 45.14 L65.61 43.85 L65.21 42.58 L64.69 41.34 L64.08 40.13 L63.37 38.96 L62.56 37.84 L61.66 36.78 L60.68 35.79 L59.61 34.87 L58.46 34.03 L57.23 33.27 L55.94 32.61 L54.60 32.05 L53.20 31.59 L51.75 31.23 L50.27 30.99 L48.77 30.87 L47.24 30.86 L45.71 30.98 L44.18 31.22 L42.66 31.58 L41.16 32.06 L39.68 32.66 L38.25 33.38 L36.87 34.22 L35.54 35.18 L34.29 36.24 L33.11 37.41 L32.02 38.68 L31.02 40.04 L30.12 41.49 L29.33 43.02 L28.66 44.62 L28.11 46.28 L27.69 48.00 L27.41 49.75 L27.26 51.54 L27.25 53.36 L27.38 55.18 L27.66 57.00 L28.09 58.82 L28.66 60.61 L29.38 62.36 L30.24 64.07 L31.24 65.72 L32.37 67.30 L33.64 68.80 L35.03 70.21 L36.55 71.51 L38.17 72.71 L39.90 73.78 L41.73 74.72 L43.64 75.53 L45.63 76.19 L47.68 76.69 L49.78 77.04 L51.92 77.22 L54.09 77.23 L56.28 77.07 L58.46 76.74 L60.63 76.23 L62.78 75.54 L64.88 74.69 L66.93 73.66 L68.91 72.46 L70.81 71.10 L72.61 69.58 L74.30 67.91 L75.87 66.09 L77.31 64.14 L78.60 62.06 L79.74 59.87 L80.70 57.57 L81.50 55.19 L82.10 52.72 L82.52 50.19 L82.74 47.62 L82.76 45.00 L82.57 42.38 L82.17 39.74 L81.56 37.13 L80.74 34.54 L79.71 32.01 L78.47 29.54 L77.03 27.15 L75.39 24.86 L73.56 22.69 L71.55 20.65 L69.36 18.75 L67.00 17.02 L64.50 15.46 L61.85 14.08 L59.08 12.91 L56.20 11.95 L53.22 11.22 L50.22 10.72 Z"/><circle cx="50" cy="50" r="6"/></svg>
